<svg xmlns="http://www.w3.org/2000/svg" xmlns:svg="http://www.w3.org/2000/svg" id="svg3162" width="185.09" height="46" version="1.1"><metadata id="metadata3167"/><g id="layer1" transform="translate(0,-1006.3593)"><g id="g8764" transform="translate(-86.806286,941.93805)"><g id="g8466" transform="matrix(-0.774359,0,0,0.772215,474.108,-107.106)"><rect style="color:#000;fill:#d3d7cf;fill-opacity:1;fill-rule:nonzero;stroke:none;stroke-width:1;marker:none;visibility:visible;display:inline;overflow:visible;enable-background:accumulate" id="rect8434" width="9.04" height="9.065" x="431.464" y="237.099" rx="0" ry="0"/><rect style="color:#000;fill:none;stroke:#d3d7cf;stroke-width:2.58636522;stroke-miterlimit:4;stroke-dasharray:none;marker:none;visibility:visible;display:inline;overflow:visible;enable-background:accumulate" id="rect8376" width="53.5" height="42.774" x="402.5" y="230.624" rx="0" ry="0"/><path style="color:#000;fill:#d3d7cf;stroke:#d3d7cf;stroke-width:1.29318261;marker:none;visibility:visible;display:inline;overflow:visible;enable-background:accumulate" id="rect8376-3" d="m 350.6737,223.5 -9,8 -18.90011,2 c -1.65278,0.1749 -3,1.338 -3,3 l 0,2.03125 L 299,239.5 c -1.939,0 -3.5,5.5729 -3.5,12.5 0,6.9271 1.563,12.4119 3.5,12.5 l 20.77359,0.96875 0,2.03125 c 0,1.662 1.34569,2.84037 3,3 l 18.90011,2 9,8 60.8263,0 c 1.662,0 3,-1.338 3,-3 l 0,-51 c 0,-1.662 -1.33824,-3.02817 -3,-3 z"/><path style="color:#000;fill:none;stroke:#d3d7cf;stroke-width:2.58636546;stroke-opacity:1;marker:none;visibility:visible;display:inline;overflow:visible;enable-background:accumulate" id="rect8454" d="m 263,248.75342 36,0 0,6.47488 -26,0"/><rect style="color:#000;fill:#d3d7cf;fill-opacity:1;fill-rule:nonzero;stroke:none;stroke-width:1;marker:none;visibility:visible;display:inline;overflow:visible;enable-background:accumulate" id="rect8434-3" width="9.04" height="9.04" x="431.464" y="257.843" rx="0" ry="0"/></g><g style="stroke:#babdb6" id="g8687" transform="translate(3,0)"><g id="g4018-5-5" transform="translate(133,-100)" style="stroke:#babdb6;display:inline;enable-background:new"><path id="path3169-2-38" d="m -37.5,178.5 -9,9 9,9" style="fill:none;stroke:#d3d7cf;stroke-width:5;stroke-linecap:round;stroke-linejoin:miter;stroke-miterlimit:4;stroke-opacity:1;stroke-dasharray:none;display:inline;enable-background:new"/></g><path style="fill:none;stroke:#d3d7cf;stroke-width:5;stroke-linecap:round;stroke-linejoin:miter;stroke-miterlimit:4;stroke-opacity:1;stroke-dasharray:none;display:inline;enable-background:new" id="path3169-2-38-9" d="m 105.5,87.5 -19,0"/></g></g></g></svg>